<svg width="98" height="40" viewBox="0 0 98 40" fill="none" xmlns="http://www.w3.org/2000/svg">
<g clip-path="url(#clip0_1330_11477)">
<path d="M76.7834 21.7891C75.6259 21.7891 74.6629 22.7306 74.6629 23.8848C74.6612 24.1665 74.715 24.4458 74.821 24.7064C74.9269 24.967 75.0831 25.2037 75.2803 25.4029C75.4775 25.6021 75.712 25.7598 75.97 25.8669C76.228 25.9739 76.5045 26.0282 76.7834 26.0265C77.06 26.025 77.3336 25.9683 77.5884 25.8598C77.8433 25.7512 78.0744 25.5929 78.2685 25.3939C78.4627 25.195 78.616 24.9592 78.7197 24.7002C78.8235 24.4413 78.8756 24.1642 78.873 23.8848C78.8685 23.3278 78.6465 22.7951 78.2552 22.4027C77.8638 22.0102 77.3349 21.7897 76.7834 21.7891ZM76.7834 25.6774C75.8057 25.6774 75.024 24.8419 75.024 23.8848C75.0279 23.4162 75.215 22.9681 75.5445 22.6381C75.8741 22.3082 76.3194 22.1232 76.7834 22.1234C77.2466 22.1258 77.6904 22.3117 78.0194 22.641C78.3484 22.9704 78.5363 23.417 78.5428 23.8848C78.5428 24.8286 77.7611 25.6782 76.7834 25.6782V25.6774Z" fill="white"/>
<path d="M77.6708 23.4148C77.6708 23.0049 77.3397 22.5949 76.7232 22.5949H75.9114V25.2222H76.2571V24.2659H76.558L77.325 25.2222H77.7757L76.9639 24.2355C77.43 24.1272 77.6708 23.7648 77.6708 23.4148ZM76.2571 23.9464V22.8685H76.6784C77.0843 22.8685 77.3096 23.0961 77.3096 23.414C77.3096 23.732 77.0689 23.9456 76.663 23.9456L76.2571 23.9464Z" fill="white"/>
<path d="M42.4302 26.205L42.3592 26.1762C41.356 25.7701 40.4995 25.4132 40.4995 24.8785C40.4995 23.9433 41.4139 23.8038 41.9587 23.8038C42.39 23.8079 42.8162 23.8982 43.2127 24.0696C43.6093 24.2409 43.9683 24.4899 44.269 24.8022L44.4674 25.0025L45.9775 23.3026L45.7969 23.1234C44.7904 22.1142 43.4339 21.5413 42.0158 21.5264C40.1384 21.5264 38.244 22.5443 38.244 24.8193C38.244 26.9127 40.2233 27.7412 41.8144 28.4044C42.948 28.8783 43.9272 29.2883 43.9272 29.9632C43.9272 30.7535 42.8824 30.9639 42.2643 30.9639C41.4733 30.9639 40.4023 30.7862 39.7904 29.9383L39.6283 29.7138L37.8489 31.1245L38.0032 31.3349C38.906 32.546 40.4378 33.2413 42.2033 33.2413C44.1795 33.2413 46.1796 32.1353 46.1796 30.0224C46.1827 27.7201 44.1024 26.88 42.4302 26.205Z" fill="white"/>
<path d="M47.3981 33.1033H54.8245V30.8369H49.7632V28.5899H53.7303V26.3235H49.7632V24.0773H54.8245V21.8109H47.3981V33.1033Z" fill="white"/>
<path d="M55.8546 24.0773H60.6335L59.3047 25.1622V33.1033H61.6698V24.0773H65.15V21.8109H55.8546V24.0773Z" fill="white"/>
<path d="M66.1924 33.1033H73.6188V30.8369H68.5575V28.5899H72.5246V26.3235H68.5575V24.0773H73.6188V21.8109H66.1924V33.1033Z" fill="white"/>
<path d="M42.7102 9.0891C43.4119 9.08222 44.0925 9.33129 44.627 9.79054L44.8523 9.99473L46.2413 8.02447L46.0299 7.86391C45.0675 7.13015 43.8967 6.72898 42.6909 6.71979C40.9161 6.71979 39.4245 7.35732 38.3751 8.56302C37.4491 9.62999 36.9375 11.0617 36.9375 12.5963C36.9375 15.4262 38.7378 18.4728 42.6909 18.4728C44.0683 18.4728 45.07 18.1275 46.0399 17.3201L46.2367 17.1564L44.8477 15.2282L44.6247 15.4332C44.1363 15.8814 43.5104 16.0988 42.7095 16.0988C40.4285 16.0988 39.3914 14.2829 39.3914 12.5963C39.3914 10.9097 40.4292 9.0891 42.7102 9.0891Z" fill="white"/>
<path d="M50.0263 13.9555H50.7663L53.5998 18.179L53.6391 18.2382H56.4688L53.2772 13.5222C53.9443 13.192 54.4847 12.6486 54.8145 11.9763C55.1444 11.3041 55.2452 10.5406 55.1014 9.80455C54.8553 8.48585 53.7124 6.9458 51.2902 6.9458H47.6635V18.2382H50.0293L50.0263 13.9555ZM52.7463 10.4546C52.7471 10.6094 52.7167 10.7628 52.6568 10.9054C52.597 11.0479 52.509 11.1767 52.3983 11.2838C52.136 11.5394 51.7532 11.6735 51.2902 11.6735H50.0263V9.22703H51.2902C52.2903 9.22781 52.7463 9.86456 52.7463 10.4546Z" fill="white"/>
<path d="M59.6542 6.9458H57.2891V18.2382H59.6542V6.9458Z" fill="white"/>
<path d="M79.6023 6.9458H70.3062V9.21223H75.085L73.7562 10.2971V18.2382H76.1221V9.21223H79.6023V6.9458Z" fill="white"/>
<path d="M82.3933 2.83228H79.8977L82.6356 8.85453L78.464 18.0512L78.3776 18.2406H80.8731L81.5576 16.7364H86.2261L89.004 22.8101L89.0395 22.888H91.535L82.4295 2.91255L82.3933 2.83228ZM85.557 14.8581H82.2389L83.9049 11.2277L85.557 14.8581Z" fill="white"/>
<path d="M92.9387 15.9726V6.9458H90.5736V18.2382H98V15.9726H92.9387Z" fill="white"/>
<path d="M69.526 15.2345C69.526 12.9564 67.4996 12.1084 65.839 11.4381L65.7704 11.4101C64.7356 10.9923 63.8412 10.6307 63.8412 10.0851C63.8412 9.14988 64.7556 9.01038 65.3004 9.01038C65.7317 9.01441 66.158 9.10471 66.5545 9.27608C66.951 9.44744 67.31 9.69646 67.6108 10.0088L67.8091 10.2091L69.3192 8.50924L69.1386 8.32921C68.1321 7.32025 66.7756 6.74761 65.3575 6.73303C63.4801 6.73303 61.5857 7.7509 61.5857 10.0259C61.5857 12.1193 63.565 12.9478 65.1561 13.611C66.2897 14.0857 67.2697 14.4956 67.2697 15.1737C67.2697 15.964 66.2241 16.1744 65.606 16.1744C64.815 16.1744 63.744 15.9967 63.1321 15.1488L62.97 14.9243L61.1921 16.3334L61.3465 16.5431C62.2501 17.755 63.781 18.4502 65.5473 18.4502C67.5197 18.4533 69.526 17.3466 69.526 15.2345Z" fill="white"/>
<path d="M17.4394 33.2217L17.4355 39.5807C17.4354 39.6234 17.4242 39.6653 17.4032 39.7024C17.3822 39.7394 17.352 39.7703 17.3155 39.792C17.2791 39.8137 17.2377 39.8255 17.1955 39.8261C17.1532 39.8268 17.1115 39.8163 17.0744 39.7958L0.128861 30.3458C0.0898325 30.3249 0.0572216 30.2935 0.0345145 30.2552C0.0118074 30.2169 -0.000129849 30.173 1.06532e-06 30.1284V10.7437C4.7663e-05 10.701 0.0111264 10.659 0.0321596 10.6219C0.0531928 10.5848 0.0834556 10.554 0.119931 10.5323C0.156407 10.5107 0.19784 10.499 0.240144 10.4985C0.282448 10.498 0.324148 10.5086 0.36113 10.5294L5.87536 13.6165C5.91346 13.6375 5.94526 13.6685 5.96739 13.7062C5.98953 13.7439 6.00119 13.787 6.00115 13.8308V26.5526C6.00114 26.5965 6.01281 26.6397 6.03493 26.6775C6.05705 26.7154 6.08882 26.7465 6.12692 26.7677L17.3105 33.0027C17.3498 33.0238 17.3827 33.0553 17.4054 33.094C17.4281 33.1326 17.4399 33.1768 17.4394 33.2217Z" fill="white"/>
<path d="M1.09269 9.46009L6.61851 12.4997C6.65401 12.5192 6.69381 12.5295 6.73426 12.5295C6.77471 12.5295 6.81451 12.5192 6.85001 12.4997L17.3005 6.60211C17.3384 6.58086 17.3699 6.54979 17.3919 6.51211C17.4139 6.47443 17.4255 6.43151 17.4255 6.38778V0.269661C17.4253 0.226908 17.4141 0.184941 17.393 0.147893C17.3718 0.110845 17.3415 0.0799933 17.305 0.0583676C17.2685 0.0367419 17.2271 0.0250873 17.1847 0.0245552C17.1424 0.0240231 17.1006 0.0346315 17.0636 0.0553326L1.09038 9.02987C1.05257 9.05143 1.02115 9.0828 0.999365 9.12074C0.977576 9.15867 0.966198 9.2018 0.966434 9.24566C0.96667 9.28952 0.978506 9.33251 1.0007 9.37021C1.0229 9.4079 1.05465 9.43894 1.09269 9.46009Z" fill="white"/>
<path d="M31.9465 19.1127V7.32617C31.9467 7.27484 31.9311 7.22471 31.9018 7.18278C31.8724 7.14086 31.8309 7.10925 31.7829 7.09236L27.1036 4.48066C27.0668 4.46781 27.0275 4.46406 26.989 4.46973C26.9505 4.47539 26.9139 4.4903 26.8823 4.51321C26.8507 4.53612 26.825 4.56635 26.8074 4.60137C26.7898 4.63639 26.7807 4.67518 26.781 4.71447V18.1315C26.7812 18.4569 26.9094 18.7689 27.1373 18.9989C27.3652 19.229 27.6742 19.3582 27.9964 19.3582H31.7003C31.7325 19.3586 31.7644 19.3526 31.7943 19.3404C31.8241 19.3283 31.8513 19.3102 31.8742 19.2874C31.8971 19.2646 31.9153 19.2374 31.9277 19.2074C31.9401 19.1774 31.9465 19.1452 31.9465 19.1127Z" fill="white"/>
<path d="M18.7366 21.058V39.7545C18.7363 39.7938 18.7453 39.8326 18.763 39.8676C18.7806 39.9026 18.8063 39.9328 18.8379 39.9557C18.8695 39.9787 18.9061 39.9936 18.9446 39.9992C18.9831 40.0049 19.0224 40.0012 19.0591 39.9883L25.0672 36.5341C25.1152 36.5172 25.1568 36.4856 25.1861 36.4437C25.2154 36.4017 25.2311 36.3516 25.2308 36.3003L25.3412 22.0377C25.3412 21.7123 25.2132 21.4003 24.9854 21.1702C24.7576 20.9402 24.4487 20.8109 24.1266 20.8109H18.9827C18.9504 20.8105 18.9184 20.8166 18.8884 20.8289C18.8585 20.8411 18.8312 20.8593 18.8083 20.8823C18.7854 20.9053 18.7672 20.9327 18.7549 20.9628C18.7426 20.993 18.7364 21.0254 18.7366 21.058Z" fill="white"/>
<path d="M25.1775 3.50408L19.0599 0.0132457C19.0231 0.000583217 18.9839 -0.00302876 18.9454 0.00271386C18.907 0.00845649 18.8705 0.0233858 18.839 0.0462589C18.8074 0.0691321 18.7817 0.099288 18.764 0.134215C18.7464 0.169142 18.7372 0.207831 18.7373 0.247059V19.1142C18.7373 19.1794 18.7629 19.2418 18.8085 19.2878C18.8541 19.3339 18.9159 19.3597 18.9804 19.3597H24.1273C24.4494 19.3597 24.7584 19.2305 24.9861 19.0004C25.2139 18.7704 25.3419 18.4584 25.3419 18.133V3.73555C25.3418 3.68447 25.326 3.63469 25.2965 3.59318C25.267 3.55167 25.2254 3.52051 25.1775 3.50408Z" fill="white"/>
<path d="M26.9214 35.4765L31.6717 32.7806C31.7197 32.7637 31.7613 32.7321 31.7906 32.6902C31.8199 32.6483 31.8355 32.5981 31.8353 32.5468L31.9464 21.0564C31.9464 20.9913 31.9208 20.9289 31.8752 20.8828C31.8296 20.8368 31.7678 20.8109 31.7033 20.8109H27.9994C27.6772 20.8109 27.3682 20.9401 27.1403 21.1702C26.9124 21.4002 26.7842 21.7122 26.784 22.0377L26.6019 35.2427C26.602 35.2815 26.6111 35.3198 26.6287 35.3544C26.6462 35.389 26.6715 35.4189 26.7027 35.4417C26.7338 35.4646 26.7699 35.4796 26.8079 35.4856C26.8459 35.4917 26.8848 35.4885 26.9214 35.4765Z" fill="white"/>
</g>
<defs>
<clipPath id="clip0_1330_11477">
<rect width="98" height="40" fill="white"/>
</clipPath>
</defs>
</svg>
