<svg width="16" height="16" viewBox="0 0 16 16" fill="none" xmlns="http://www.w3.org/2000/svg">
<path fill-rule="evenodd" clip-rule="evenodd" d="M8.00002 2.66665C6.89545 2.66665 6.00002 3.56208 6.00002 4.66665C6.00002 5.77121 6.89545 6.66665 8.00002 6.66665C9.10459 6.66665 10 5.77121 10 4.66665C10 3.56208 9.10459 2.66665 8.00002 2.66665ZM4.66668 4.66665C4.66668 2.8257 6.15907 1.33331 8.00002 1.33331C9.84097 1.33331 11.3333 2.8257 11.3333 4.66665C11.3333 6.5076 9.84097 7.99998 8.00002 7.99998C6.15907 7.99998 4.66668 6.5076 4.66668 4.66665Z" fill="white"/>
<path fill-rule="evenodd" clip-rule="evenodd" d="M6.66671 10.6666C6.13627 10.6666 5.62757 10.8774 5.25249 11.2524C4.87742 11.6275 4.66671 12.1362 4.66671 12.6666V14C4.66671 14.3682 4.36823 14.6666 4.00004 14.6666C3.63185 14.6666 3.33337 14.3682 3.33337 14V12.6666C3.33337 11.7826 3.68456 10.9347 4.30968 10.3096C4.93481 9.6845 5.78265 9.33331 6.66671 9.33331H9.33337C10.2174 9.33331 11.0653 9.6845 11.6904 10.3096C12.3155 10.9347 12.6667 11.7826 12.6667 12.6666V14C12.6667 14.3682 12.3682 14.6666 12 14.6666C11.6319 14.6666 11.3334 14.3682 11.3334 14V12.6666C11.3334 12.1362 11.1227 11.6275 10.7476 11.2524C10.3725 10.8774 9.86381 10.6666 9.33337 10.6666H6.66671Z" fill="white"/>
</svg>
